<?xml version="1.0" standalone="no"?>
<!DOCTYPE svg PUBLIC "-//W3C//DTD SVG 20010904//EN"
 "http://www.w3.org/TR/2001/REC-SVG-20010904/DTD/svg10.dtd">
<svg version="1.0" xmlns="http://www.w3.org/2000/svg"
 width="512.000000pt" height="512.000000pt" viewBox="0 0 512.000000 512.000000"
 preserveAspectRatio="xMidYMid meet">

<g transform="translate(0.000000,512.000000) scale(0.100000,-0.100000)"
fill="#000000" stroke="none">
<path d="M4090 5113 c-130 -51 -921 -416 -970 -448 -77 -51 -164 -139 -213
-216 -58 -91 -88 -176 -123 -346 l-4 -23 -335 0 c-184 0 -335 2 -335 3 0 2 43
34 95 71 52 37 102 77 110 89 38 54 1 134 -108 233 -81 73 -177 129 -285 167
-76 26 -104 31 -222 35 -115 4 -149 1 -217 -16 -347 -88 -583 -392 -584 -752
0 -155 21 -244 88 -372 56 -107 97 -139 156 -124 13 3 79 44 146 92 67 47 124
84 127 81 3 -3 -15 -108 -40 -233 -84 -426 -146 -831 -183 -1209 -25 -259 -25
-907 0 -1084 42 -294 105 -542 188 -737 70 -163 128 -231 248 -288 l66 -31
223 0 224 0 24 28 c33 38 33 96 0 134 l-24 28 -204 5 c-172 4 -209 8 -241 24
-56 28 -93 79 -136 191 -61 158 -63 150 16 105 37 -21 97 -49 133 -62 l65 -23
709 -3 c687 -2 711 -2 783 18 75 20 155 56 206 92 15 11 27 15 27 10 0 -15
-65 -184 -89 -229 -26 -51 -80 -99 -128 -112 -21 -6 -107 -11 -190 -11 l-153
0 -32 -29 c-27 -24 -33 -36 -33 -71 0 -35 6 -47 34 -72 l33 -30 187 4 c227 5
268 18 368 112 77 72 121 157 193 375 109 328 150 618 150 1066 0 538 -76
1164 -240 1975 -85 419 -102 487 -134 519 l-26 26 -229 3 -229 3 15 67 c33
150 135 297 253 365 25 14 243 114 485 222 285 127 448 205 463 221 66 74 -15
192 -108 157z m-2267 -649 c33 -8 83 -27 111 -41 55 -28 146 -93 146 -105 0
-15 -326 -238 -349 -238 l-24 0 7 92 c3 50 6 140 6 200 0 124 -5 120 103 92z
m-303 -106 c0 -57 -3 -133 -6 -169 l-7 -66 -141 55 c-77 29 -145 58 -151 64
-18 17 124 142 206 182 41 20 80 36 87 36 9 0 12 -27 12 -102z m-72 -425 c23
-8 42 -21 42 -27 0 -17 -327 -249 -340 -241 -5 3 -19 36 -30 73 -27 86 -29
268 -4 314 2 3 68 -19 147 -49 78 -30 161 -62 185 -70z m1292 -60 c-1 -5 -22
-114 -48 -243 l-48 -235 -527 -3 c-325 -1 -527 1 -527 7 0 11 66 337 79 391 5
19 12 47 15 63 l6 27 525 0 c289 0 525 -3 525 -7z m626 -198 c24 -110 46 -219
50 -242 l6 -43 -286 0 c-157 0 -286 4 -286 8 0 13 89 455 95 470 3 10 47 12
192 10 l187 -3 42 -200z m-766 -496 c0 -6 -92 -478 -205 -1049 -113 -570 -205
-1045 -205 -1055 0 -27 64 -85 94 -85 38 0 76 21 91 50 8 15 106 496 220 1071
113 574 208 1052 211 1062 5 16 27 17 332 15 l326 -3 18 -105 c61 -354 103
-656 135 -965 25 -244 25 -857 0 -1035 l-18 -125 -58 -75 c-72 -94 -154 -162
-251 -209 l-75 -36 -685 -3 c-659 -2 -687 -2 -750 17 -114 35 -234 127 -327
251 -40 53 -42 59 -60 190 -22 168 -26 724 -5 945 34 362 114 937 157 1133 l5
22 525 0 c379 0 525 -3 525 -11z"/>
<path d="M1896 2846 c-46 -17 -237 -202 -261 -252 -21 -44 -19 -117 4 -162 24
-46 207 -227 245 -242 44 -16 123 -12 164 9 50 26 218 199 237 244 19 46 19
98 0 145 -17 39 -179 210 -230 242 -43 26 -112 33 -159 16z m131 -258 c35 -34
63 -67 63 -73 0 -6 -29 -40 -65 -75 l-65 -64 -70 69 -70 69 67 68 c37 38 70
68 72 68 3 0 34 -28 68 -62z"/>
<path d="M2866 1868 c-25 -7 -58 -29 -87 -58 -63 -63 -72 -106 -67 -320 3
-154 5 -168 28 -210 14 -24 44 -58 68 -75 l44 -30 203 -3 c189 -3 206 -2 244
17 48 25 76 53 102 104 18 35 20 56 17 242 l-3 203 -30 44 c-17 24 -51 54 -75
68 -43 24 -53 25 -225 27 -104 1 -197 -3 -219 -9z m354 -343 l0 -156 -152 3
-153 3 -3 140 c-1 76 0 145 2 152 4 10 42 13 156 13 l150 0 0 -155z"/>
<path d="M2494 190 c-47 -19 -69 -92 -44 -141 13 -23 61 -49 92 -49 33 0 68
27 84 66 12 29 12 39 0 68 -24 57 -75 79 -132 56z"/>
</g>
</svg>
