<svg width="20" height="20" viewBox="0 0 20 20" fill="none" xmlns="http://www.w3.org/2000/svg">
<g clip-path="url(#clip0_20_2389)">
<path opacity="0.99" fill-rule="evenodd" clip-rule="evenodd" d="M11.7773 -0.0192871C12.4675 -0.0192871 13.1575 -0.0192871 13.8477 -0.0192871C14.2843 0.0236356 14.727 0.062698 15.1758 0.0979004C15.1758 1.16561 15.1758 2.23332 15.1758 3.30103C14.3676 3.28911 13.5603 3.30864 12.7539 3.35962C11.9985 3.49012 11.6014 3.93935 11.5625 4.70728C11.543 5.56653 11.5364 6.42591 11.543 7.2854C12.7148 7.2854 13.8867 7.2854 15.0586 7.2854C14.9089 8.48255 14.7657 9.68048 14.6289 10.8792C13.6003 10.8792 12.5716 10.8792 11.543 10.8792C11.543 13.913 11.543 16.9468 11.543 19.9807C10.306 19.9807 9.06902 19.9807 7.83203 19.9807C7.83203 16.9468 7.83203 13.913 7.83203 10.8792C6.81641 10.8792 5.80078 10.8792 4.78516 10.8792C4.78516 9.68122 4.78516 8.48333 4.78516 7.2854C5.80078 7.2854 6.81641 7.2854 7.83203 7.2854C7.81703 6.13876 7.83656 4.9929 7.89062 3.8479C8.22219 1.58272 9.51777 0.293655 11.7773 -0.0192871Z" fill="#000002"/>
</g>
<defs>
<clipPath id="clip0_20_2389">
<rect width="20" height="20" fill="white"/>
</clipPath>
</defs>
</svg>
