<?xml version="1.0" standalone="no"?>
<!DOCTYPE svg PUBLIC "-//W3C//DTD SVG 20010904//EN"
 "http://www.w3.org/TR/2001/REC-SVG-20010904/DTD/svg10.dtd">
<svg version="1.0" xmlns="http://www.w3.org/2000/svg"
 width="512.000000pt" height="512.000000pt" viewBox="0 0 512.000000 512.000000"
 preserveAspectRatio="xMidYMid meet">

<g transform="translate(0.000000,512.000000) scale(0.100000,-0.100000)"
fill="#000000" stroke="none">
<path d="M1244 5106 c-56 -25 -210 -220 -332 -422 -328 -544 -452 -1202 -346
-1844 71 -434 281 -910 521 -1183 274 -312 687 -477 1096 -437 66 6 123 8 127
3 5 -4 14 -80 21 -168 12 -140 13 -410 5 -877 -1 -63 3 -81 20 -104 49 -66
126 -90 195 -61 62 26 90 74 102 175 22 192 9 899 -19 1059 l-6 33 48 -15
c177 -51 438 -65 609 -31 271 53 497 171 686 359 141 140 227 267 350 522 257
530 333 1119 219 1708 -78 403 -272 822 -532 1149 -136 171 -147 174 -417 97
-331 -94 -695 -284 -945 -493 -43 -36 -82 -66 -85 -66 -3 0 -42 30 -86 66
-294 242 -693 438 -1062 524 -98 23 -127 24 -169 6z m276 -368 c566 -180 1051
-589 1339 -1128 246 -462 339 -1033 222 -1371 -51 -149 -151 -301 -270 -412
-67 -61 -215 -165 -229 -160 -3 1 -22 85 -42 185 -67 326 -158 653 -267 955
l-54 151 96 274 c80 226 96 280 92 315 -13 118 -149 178 -247 110 -40 -27 -52
-48 -91 -160 l-31 -89 -149 301 c-81 166 -157 315 -169 331 -86 121 -273 71
-287 -77 -5 -45 2 -61 114 -283 128 -253 248 -518 339 -750 55 -140 184 -512
179 -518 -1 -1 -79 25 -174 58 -107 37 -189 60 -215 60 -76 0 -144 -63 -153
-142 -6 -52 22 -118 61 -143 13 -9 149 -59 302 -112 154 -53 281 -98 283 -99
11 -10 106 -472 98 -480 -2 -2 -47 -8 -100 -14 -373 -42 -729 137 -949 475
-162 249 -280 559 -340 895 -30 170 -33 565 -5 735 66 400 215 760 443 1068
56 77 44 76 204 25z m2284 -25 c227 -306 377 -668 443 -1068 25 -155 25 -542
0 -704 -40 -254 -111 -479 -222 -706 -217 -441 -483 -652 -878 -695 -56 -6
-116 -9 -135 -5 l-34 6 94 97 c259 265 378 561 379 940 2 540 -219 1143 -585
1601 -89 111 -93 94 50 202 218 164 484 299 736 373 46 14 88 25 93 25 6 0 32
-29 59 -66z"/>
</g>
</svg>
