<?xml version="1.0" standalone="no"?>
<!DOCTYPE svg PUBLIC "-//W3C//DTD SVG 20010904//EN"
 "http://www.w3.org/TR/2001/REC-SVG-20010904/DTD/svg10.dtd">
<svg version="1.0" xmlns="http://www.w3.org/2000/svg"
 width="512.000000pt" height="512.000000pt" viewBox="0 0 512.000000 512.000000"
 preserveAspectRatio="xMidYMid meet">

<g transform="translate(0.000000,512.000000) scale(0.100000,-0.100000)"
fill="#000000" stroke="none">
<path d="M2375 5114 c-190 -20 -385 -62 -416 -90 -29 -26 -22 -81 12 -107 27
-19 27 -19 155 6 791 159 1585 -125 2081 -743 l84 -105 -865 -3 c-477 -1
-1255 -1 -1732 0 l-865 3 84 105 c191 239 477 464 743 586 103 47 126 87 81
140 -34 39 -67 34 -187 -26 -337 -169 -622 -414 -845 -725 l-57 -80 -136 -5
c-121 -5 -144 -9 -194 -32 -75 -35 -138 -94 -179 -170 -33 -60 -34 -68 -34
-168 0 -93 3 -111 27 -163 36 -77 110 -147 193 -183 l67 -29 -5 -90 c-3 -49
-15 -169 -26 -265 -63 -542 -67 -1124 -10 -1694 18 -175 19 -219 9 -270 -17
-89 -60 -171 -131 -251 -34 -38 -76 -99 -93 -135 -29 -61 -31 -72 -31 -181 0
-113 1 -117 37 -190 58 -118 159 -201 283 -233 50 -14 145 -16 620 -16 551 0
562 0 583 20 29 28 30 82 0 109 -21 20 -36 20 -597 23 -572 3 -576 3 -617 25
-106 57 -155 128 -162 238 -6 103 13 155 93 246 100 114 155 232 170 369 4 31
-3 142 -14 255 -59 582 -52 1210 19 1765 11 85 20 181 20 213 l0 57 2019 0
2018 0 6 -92 c3 -51 15 -172 26 -268 63 -544 67 -1114 10 -1675 -11 -113 -18
-224 -14 -255 15 -137 70 -255 169 -369 73 -82 96 -136 96 -221 0 -113 -52
-200 -151 -255 l-54 -30 -1382 -5 c-1295 -5 -1384 -6 -1403 -22 -28 -24 -27
-81 2 -108 22 -20 27 -20 1388 -20 1202 0 1373 2 1425 16 124 32 225 115 283
233 36 73 37 77 37 190 0 109 -2 120 -31 181 -17 36 -59 97 -93 135 -71 80
-114 162 -131 252 -10 51 -10 90 3 215 35 335 41 461 41 863 0 425 -11 630
-54 975 -11 85 -20 180 -20 210 l0 56 66 28 c82 36 156 106 192 183 24 52 27
70 27 163 0 100 -1 108 -34 168 -41 76 -104 135 -179 170 -50 23 -73 27 -194
32 l-136 5 -57 80 c-135 188 -314 373 -489 504 -303 228 -654 377 -1031 436
-96 15 -437 28 -520 19z m2393 -1227 c65 -43 96 -97 100 -177 5 -77 -17 -132
-71 -182 -68 -62 70 -58 -2237 -58 -2328 0 -2171 -4 -2242 64 -48 47 -68 94
-68 160 0 94 43 166 123 205 l42 21 2156 -2 2155 -3 42 -28z"/>
<path d="M2106 4804 c-82 -30 -166 -124 -166 -186 0 -39 32 -68 75 -68 30 0
40 6 70 49 38 52 64 66 135 75 80 9 112 74 63 129 -20 21 -119 22 -177 1z"/>
<path d="M2895 4765 c-52 -51 -13 -125 67 -125 53 0 102 -28 129 -74 38 -65
120 -68 143 -5 15 42 -1 78 -63 139 -44 45 -70 62 -111 74 -81 24 -136 21
-165 -9z"/>
<path d="M2637 4459 c-9 -5 -26 -27 -37 -49 -26 -51 -62 -78 -116 -86 -53 -8
-81 -28 -90 -66 -5 -22 0 -34 25 -59 29 -29 36 -31 77 -25 102 14 204 87 240
171 20 49 18 72 -11 100 -25 26 -58 31 -88 14z"/>
<path d="M1480 4421 c-85 -17 -169 -81 -203 -153 -29 -62 1 -118 64 -118 20 0
38 13 70 51 47 56 89 79 144 79 86 0 105 110 24 139 -35 12 -46 12 -99 2z"/>
<path d="M3564 4421 c-26 -11 -54 -49 -54 -72 0 -9 9 -28 21 -43 15 -19 30
-26 57 -26 55 -1 116 -32 141 -74 38 -61 90 -74 129 -33 30 31 28 64 -7 119
-32 50 -78 90 -132 112 -47 19 -128 28 -155 17z"/>
<path d="M2377 2725 c-374 -71 -680 -354 -789 -730 -20 -70 -23 -102 -23 -255
0 -205 16 -284 90 -437 245 -506 853 -715 1350 -465 206 103 360 259 460 465
74 153 90 232 90 437 0 153 -3 185 -23 255 -104 358 -373 622 -730 716 -103
28 -317 34 -425 14z m398 -160 c93 -25 253 -108 326 -168 125 -104 215 -236
271 -397 32 -93 33 -99 33 -260 0 -145 -3 -174 -23 -240 -102 -322 -355 -549
-677 -605 -110 -19 -180 -19 -290 0 -322 56 -576 283 -677 605 -20 66 -23 95
-23 240 0 164 0 166 36 267 39 111 79 184 149 271 119 147 322 267 512 302 75
13 291 4 363 -15z"/>
<path d="M2513 2410 c-54 -22 -213 -336 -213 -420 0 -133 127 -260 260 -260
107 0 216 83 246 186 22 77 11 135 -52 264 -106 219 -154 265 -241 230z m104
-287 c68 -140 61 -208 -25 -234 -77 -23 -155 45 -137 120 10 41 94 211 105
211 5 0 31 -44 57 -97z"/>
<path d="M2033 1825 c-61 -26 -66 -46 -60 -228 5 -182 17 -231 70 -285 156
-163 418 -60 417 162 -1 105 -39 160 -176 254 -70 47 -191 112 -207 112 -7 -1
-26 -7 -44 -15z m177 -228 c83 -55 100 -76 100 -123 0 -78 -87 -121 -145 -71
-31 26 -44 79 -45 180 0 77 -4 76 90 14z"/>
<path d="M2964 1804 c-148 -79 -256 -165 -285 -229 -42 -92 -10 -233 66 -290
133 -102 333 -44 382 110 10 33 17 104 20 207 6 178 0 198 -62 224 -46 19 -44
19 -121 -22z m31 -303 c-6 -52 -12 -70 -35 -93 -36 -36 -78 -37 -119 -2 -26
21 -31 33 -31 68 0 50 19 71 120 136 l65 41 3 -43 c2 -24 1 -72 -3 -107z"/>
</g>
</svg>
