<svg width="20" height="20" viewBox="0 0 20 20" fill="none" xmlns="http://www.w3.org/2000/svg">
<g clip-path="url(#clip0_20_2383)">
<path opacity="0.966" fill-rule="evenodd" clip-rule="evenodd" d="M7.55757 -0.0195312C8.10444 -0.0195312 8.65132 -0.0195312 9.19819 -0.0195312C12.0571 0.325225 14.2381 1.71845 15.7412 4.16016C16.9971 6.49648 17.1534 8.90535 16.2099 11.3867C15.8228 12.2787 15.3085 13.086 14.6669 13.8086C16.3982 15.5334 18.1365 17.2521 19.8818 18.9648C19.9055 19.026 19.9381 19.0781 19.9794 19.1211C19.9794 19.2643 19.9794 19.4075 19.9794 19.5508C19.9013 19.7591 19.7581 19.9023 19.5498 19.9805C19.4065 19.9805 19.2633 19.9805 19.1201 19.9805C19.0393 19.9463 18.9612 19.9007 18.8857 19.8438C17.1599 18.1375 15.4281 16.4382 13.6904 14.7461C11.0257 16.6753 8.14804 17.0594 5.05757 15.8984C2.12451 14.5306 0.431798 12.2455 -0.0205574 9.04297C-0.0205574 8.52215 -0.0205574 8.00129 -0.0205574 7.48047C0.388176 4.4223 1.9637 2.18925 4.70601 0.78125C5.62214 0.373329 6.57265 0.106401 7.55757 -0.0195312ZM8.10444 1.26953C10.675 1.26253 12.7258 2.27815 14.2568 4.31641C15.6067 6.39613 15.8411 8.59664 14.9599 10.918C13.9651 13.1185 12.292 14.5052 9.94038 15.0781C7.49647 15.5448 5.34804 14.9589 3.49507 13.3203C1.36104 11.1312 0.79463 8.58559 1.79585 5.68359C2.78029 3.43635 4.46647 2.02359 6.85444 1.44531C7.27362 1.36216 7.69026 1.30357 8.10444 1.26953Z" fill="#5A5A5A"/>
</g>
<defs>
<clipPath id="clip0_20_2383">
<rect width="20" height="20" fill="white"/>
</clipPath>
</defs>
</svg>
