<?xml version="1.0" standalone="no"?>
<!DOCTYPE svg PUBLIC "-//W3C//DTD SVG 20010904//EN"
 "http://www.w3.org/TR/2001/REC-SVG-20010904/DTD/svg10.dtd">
<svg version="1.0" xmlns="http://www.w3.org/2000/svg"
 width="512.000000pt" height="512.000000pt" viewBox="0 0 512.000000 512.000000"
 preserveAspectRatio="xMidYMid meet">

<g transform="translate(0.000000,512.000000) scale(0.100000,-0.100000)"
fill="#000000" stroke="none">
<path d="M4667 5110 c-96 -25 -137 -57 -418 -337 l-277 -275 -148 60 c-585
237 -1149 358 -1574 338 -306 -14 -541 -84 -755 -225 -97 -63 -650 -611 -666
-658 -16 -49 -4 -97 32 -127 40 -34 72 -41 125 -29 24 6 44 9 44 8 0 -1 -55
-49 -122 -106 -157 -133 -425 -378 -504 -460 -423 -446 -513 -1294 -269 -2524
44 -225 102 -453 121 -482 24 -38 53 -50 199 -87 594 -150 1260 -227 1712
-198 525 33 881 158 1132 396 77 74 312 330 441 481 139 164 130 155 117 102
-12 -55 -4 -88 31 -127 34 -39 86 -49 134 -26 52 25 593 576 649 661 141 214
211 449 225 755 20 425 -101 989 -338 1574 l-60 148 275 277 c249 249 279 283
309 346 29 62 33 80 33 155 0 75 -4 93 -32 152 -39 83 -97 142 -178 179 -70
33 -172 45 -238 29z m137 -250 c55 -21 82 -110 52 -168 -8 -15 -116 -128 -241
-252 -179 -178 -228 -222 -235 -210 -5 8 -20 33 -32 55 -13 22 -41 50 -63 63
-22 12 -47 27 -55 32 -12 7 31 55 205 231 121 121 234 230 250 240 33 21 80
24 119 9z m-2099 -234 c406 -65 889 -221 1328 -429 l109 -51 38 -75 c80 -161
193 -437 267 -656 84 -248 142 -482 179 -715 23 -145 27 -560 6 -655 -42 -188
-106 -338 -196 -452 -24 -32 -85 -98 -135 -147 l-90 -90 34 130 c40 147 40
154 20 198 -19 40 -62 66 -108 66 -20 0 -129 -25 -244 -56 -114 -30 -222 -59
-239 -63 -32 -9 -32 -9 -23 23 4 17 33 125 63 239 59 221 65 261 41 306 -14
29 -68 61 -101 61 -9 0 -127 -29 -262 -65 -134 -36 -246 -64 -248 -62 -2 2 25
114 61 248 36 134 65 252 65 262 0 34 -32 88 -61 102 -45 24 -81 19 -327 -46
-127 -34 -235 -59 -239 -56 -3 4 22 112 56 239 34 128 61 248 61 266 0 62 -57
122 -116 122 -9 0 -127 -29 -262 -65 -134 -36 -246 -64 -249 -62 -2 3 26 115
62 249 36 135 65 253 65 262 0 59 -60 116 -122 116 -18 0 -138 -27 -266 -61
-127 -34 -235 -59 -239 -56 -3 4 22 112 56 239 34 128 61 248 61 266 0 47 -24
87 -64 106 -46 22 -52 21 -200 -19 l-130 -34 90 90 c151 154 266 230 429 285
156 52 256 64 505 60 138 -3 264 -11 325 -20z m-1330 -952 c-56 -210 -57 -244
-11 -290 48 -48 77 -45 359 29 130 35 237 61 237 59 0 -3 -30 -116 -66 -251
-72 -270 -74 -296 -26 -343 47 -48 73 -46 343 26 135 36 248 66 251 66 2 0
-24 -107 -59 -237 -74 -282 -77 -311 -29 -359 48 -48 78 -45 359 29 130 35
237 61 237 59 0 -3 -30 -116 -66 -251 -72 -270 -74 -296 -26 -343 47 -48 73
-46 344 26 136 36 249 66 251 66 2 0 -25 -107 -59 -237 -75 -282 -78 -311 -30
-359 46 -46 80 -45 289 11 93 25 173 45 179 45 29 0 -500 -617 -688 -802 -123
-120 -212 -179 -369 -241 -211 -84 -407 -117 -732 -124 -349 -8 -639 16 -1053
88 -231 40 -532 107 -547 122 -15 15 -82 316 -122 547 -72 414 -96 704 -88
1053 8 376 56 606 172 839 75 148 170 253 470 520 188 168 519 440 523 430 1
-5 -18 -85 -43 -178z"/>
<path d="M832 2945 c-126 -108 -218 -337 -258 -640 -25 -196 -15 -748 15 -828
26 -66 113 -96 174 -58 55 34 61 60 51 234 -14 240 -9 535 10 662 32 201 87
351 158 431 47 53 58 75 58 124 0 34 -6 48 -34 76 -29 29 -41 34 -83 34 -42 0
-56 -5 -91 -35z"/>
<path d="M2805 1028 c-11 -6 -38 -27 -59 -46 -47 -42 -176 -103 -266 -126
-339 -85 -853 -68 -1470 50 -110 21 -197 33 -216 29 -47 -8 -82 -41 -94 -86
-9 -33 -8 -46 7 -76 10 -20 29 -45 43 -55 47 -34 549 -119 875 -148 159 -14
514 -14 645 0 292 32 522 117 651 241 57 55 59 58 59 109 0 46 -4 56 -34 86
-28 28 -41 34 -77 34 -24 0 -53 -6 -64 -12z"/>
</g>
</svg>
