<?xml version="1.0" standalone="no"?>
<!DOCTYPE svg PUBLIC "-//W3C//DTD SVG 20010904//EN"
 "http://www.w3.org/TR/2001/REC-SVG-20010904/DTD/svg10.dtd">
<svg version="1.0" xmlns="http://www.w3.org/2000/svg"
 width="512.000000pt" height="512.000000pt" viewBox="0 0 512.000000 512.000000"
 preserveAspectRatio="xMidYMid meet">

<g transform="translate(0.000000,512.000000) scale(0.100000,-0.100000)"
fill="#000000" stroke="none">
<path d="M1256 5104 c-189 -46 -346 -205 -391 -396 -10 -44 -15 -122 -15 -253
l-1 -190 -410 -415 c-226 -228 -417 -427 -425 -442 -34 -64 -1 -154 68 -189
42 -22 66 -22 180 -3 l36 6 -33 -89 c-104 -275 -106 -586 -6 -875 34 -99 758
-1774 808 -1869 89 -171 266 -311 463 -366 61 -17 130 -18 1030 -18 1077 0
1010 -4 1167 71 134 64 267 193 333 324 51 101 771 1772 801 1858 100 289 98
600 -6 875 l-33 89 36 -6 c114 -19 138 -19 180 3 69 35 102 125 68 189 -8 15
-199 214 -425 442 l-411 415 0 190 c0 131 -5 209 -15 253 -46 193 -203 351
-396 397 -93 22 -2512 21 -2603 -1z m2579 -308 c60 -28 87 -56 114 -116 17
-38 21 -66 21 -182 l0 -138 -1410 0 -1410 0 0 138 c0 116 4 144 21 182 27 60
54 88 114 116 l50 24 1225 0 1225 0 50 -24z m442 -963 c122 -125 221 -228 220
-230 -2 -1 -54 9 -117 23 -241 51 -383 67 -595 68 -230 0 -288 -8 -662 -99
-315 -77 -386 -88 -548 -89 -163 -1 -214 8 -498 90 -277 80 -391 104 -542 110
-126 6 -141 4 -524 -60 -217 -37 -398 -65 -402 -64 -5 2 96 110 224 241 l232
238 1495 0 1495 0 222 -228z m-2626 -439 c52 -9 204 -47 337 -85 328 -92 391
-103 587 -103 191 1 270 13 605 94 379 91 400 94 605 94 124 0 214 -5 290 -18
109 -17 294 -53 328 -62 37 -11 145 -200 185 -324 36 -112 46 -181 45 -305 -1
-129 -19 -238 -57 -339 -40 -104 -756 -1758 -789 -1819 -33 -63 -117 -146
-178 -178 -98 -49 -91 -49 -1049 -49 -977 0 -960 -1 -1060 57 -69 41 -134 107
-168 171 -32 60 -749 1715 -788 1818 -38 102 -57 210 -57 339 -1 203 48 369
161 546 l35 55 361 61 c391 66 463 71 607 47z"/>
<path d="M1678 2619 c-23 -12 -46 -35 -58 -59 -19 -38 -20 -58 -20 -600 0
-542 1 -562 20 -600 13 -26 34 -47 60 -60 38 -20 57 -20 880 -20 823 0 842 0
880 20 26 13 47 34 60 60 19 38 20 58 20 600 0 542 -1 562 -20 600 -13 26 -34
47 -60 60 -38 20 -57 20 -882 20 -820 -1 -844 -1 -880 -21z m1542 -659 l0
-380 -660 0 -660 0 0 380 0 380 660 0 660 0 0 -380z"/>
</g>
</svg>
