<svg width="20" height="20" viewBox="0 0 20 20" fill="none" xmlns="http://www.w3.org/2000/svg">
<path opacity="0.988" fill-rule="evenodd" clip-rule="evenodd" d="M12.7148 3.45703C13.794 3.39777 14.712 3.74933 15.4688 4.51172C16.1865 4.33762 16.8636 4.06418 17.5 3.69141C17.3229 4.45457 16.8997 5.047 16.2305 5.46875C16.362 5.48164 16.4921 5.46864 16.6211 5.42969C17.0829 5.30594 17.5387 5.17575 17.9883 5.03907C17.5359 5.7259 16.976 6.31184 16.3086 6.79688C16.3682 9.89328 15.2354 12.4584 12.9102 14.4922C10.9394 16.0299 8.6998 16.6939 6.19141 16.4844C4.65313 16.3449 3.23384 15.8631 1.93359 15.0391C3.3232 15.1525 4.63832 14.8921 5.87891 14.2578C6.16937 14.0906 6.44281 13.9018 6.69922 13.6914C5.24121 13.5227 4.25164 12.7545 3.73047 11.3867C3.74349 11.3737 3.75651 11.3607 3.76953 11.3477C4.22512 11.4443 4.68082 11.4377 5.13672 11.3281C3.51942 10.8214 2.67958 9.72118 2.61719 8.02735C3.03251 8.27871 3.48173 8.40239 3.96484 8.39844C2.58158 7.20746 2.27559 5.78168 3.04688 4.1211C3.0749 4.08395 3.10746 4.07746 3.14453 4.10157C4.89039 6.16594 7.11695 7.28571 9.82422 7.46094C9.56082 5.90461 10.0947 4.70668 11.4258 3.86719C11.8364 3.65429 12.2661 3.51757 12.7148 3.45703Z" fill="#333333"/>
</svg>
